<svg width="119" height="47" viewBox="0 0 119 47" fill="none" xmlns="http://www.w3.org/2000/svg">
<path d="M83.184 22.8V34H82.016V28.832H75.008V34H73.824V22.8H75.008V27.792H82.016V22.8H83.184ZM89.0156 23.824H85.0796V22.8H94.1356V23.824H90.1996V34H89.0156V23.824ZM107.659 22.8V34H106.523V25.04L102.123 32.576H101.563L97.1631 25.088V34H96.0271V22.8H97.0031L101.867 31.104L106.683 22.8H107.659ZM111.308 22.8H112.492V32.976H118.764V34H111.308V22.8Z" fill="#2F2E41"/>
<path d="M3.72159 41.7392L0 0H40.8928L37.1662 41.7325L20.4216 46.375L3.72159 41.7392Z" fill="#E44F26"/>
<path d="M20.4463 42.8274L33.9779 39.076L37.1612 3.41357H20.4463V42.8274Z" fill="#F1662A"/>
<path d="M20.4463 18.8927H13.6722L13.2052 13.6507H20.4463V8.53119H7.61035L7.73291 9.90588L8.99001 24.0122H20.4463V18.8927V18.8927Z" fill="#EBEBEB"/>
<path d="M20.4462 32.1875L20.423 32.1941L14.7222 30.6555L14.3579 26.5728H9.21851L9.93566 34.6089L20.423 37.5206L20.4462 37.514V32.1875Z" fill="#EBEBEB"/>
<path d="M20.428 18.8931V24.0126H26.7317L26.1387 30.6525L20.428 32.1928V37.5193L30.9236 34.6093L30.9998 33.7447L32.2023 20.2678L32.3281 18.8931H20.428V18.8931Z" fill="white"/>
<path d="M20.428 8.53119V13.6507H32.7935L32.8962 12.5012L33.1298 9.90588L33.2523 8.53119H20.428V8.53119Z" fill="white"/>
</svg>
