<svg width="102" height="49" viewBox="0 0 102 49" fill="none" xmlns="http://www.w3.org/2000/svg">
<path d="M46.4315 22.934L25.5234 2.02595L23.4975 0L7.75841 15.7391L0.561297 22.934C0.201805 23.2953 0 23.7843 0 24.294C0 24.8037 0.201805 25.2927 0.561297 25.6541L14.9403 40.0331L23.4975 48.5881L39.2344 32.849L39.4795 32.6061L46.4315 25.6649C46.6116 25.4861 46.7546 25.2733 46.8522 25.039C46.9498 24.8047 47 24.5533 47 24.2995C47 24.0456 46.9498 23.7943 46.8522 23.5599C46.7546 23.3256 46.6116 23.1128 46.4315 22.934ZM23.4975 31.4781L16.3134 24.294L23.4975 17.1099L30.6794 24.294L23.4975 31.4781Z" fill="#2684FF"/>
<path d="M23.4974 17.11C21.238 14.8511 19.9644 11.7899 19.9546 8.59502C19.9449 5.40014 21.1998 2.33122 23.4454 0.0585938L7.72583 15.7716L16.2808 24.3266L23.4974 17.11Z" fill="url(#paint0_linear_54_95)"/>
<path d="M30.699 24.2744L23.4976 31.478C25.7655 33.7466 27.0396 36.823 27.0396 40.0308C27.0396 43.2386 25.7655 46.3151 23.4976 48.5836L39.2605 32.8294L30.699 24.2744Z" fill="url(#paint1_linear_54_95)"/>
<path d="M76.024 35.096C75.384 35.096 74.792 34.9573 74.248 34.68C73.704 34.4027 73.2613 34.008 72.92 33.496L73.624 32.696C74.2427 33.6133 75.048 34.072 76.04 34.072C77.4267 34.072 78.12 33.2507 78.12 31.608V24.824H74.024V23.8H79.288V31.56C79.288 32.7333 79.0107 33.6187 78.456 34.216C77.912 34.8027 77.1013 35.096 76.024 35.096ZM82.5996 26.584H83.7356V35H82.5996V26.584ZM83.1756 24.744C82.941 24.744 82.7436 24.664 82.5836 24.504C82.4236 24.344 82.3436 24.152 82.3436 23.928C82.3436 23.7147 82.4236 23.528 82.5836 23.368C82.7436 23.208 82.941 23.128 83.1756 23.128C83.4103 23.128 83.6076 23.208 83.7676 23.368C83.9276 23.5173 84.0076 23.6987 84.0076 23.912C84.0076 24.1467 83.9276 24.344 83.7676 24.504C83.6076 24.664 83.4103 24.744 83.1756 24.744ZM87.9845 28.232C88.2512 27.6667 88.6458 27.24 89.1685 26.952C89.7018 26.664 90.3578 26.52 91.1365 26.52V27.624L90.8645 27.608C89.9792 27.608 89.2858 27.88 88.7845 28.424C88.2832 28.968 88.0325 29.7307 88.0325 30.712V35H86.8965V26.584H87.9845V28.232ZM96.1218 26.52C97.2204 26.52 98.0631 26.7973 98.6498 27.352C99.2364 27.896 99.5298 28.7067 99.5298 29.784V35H98.4418V33.688C98.1858 34.1253 97.8071 34.4667 97.3058 34.712C96.8151 34.9573 96.2284 35.08 95.5458 35.08C94.6071 35.08 93.8604 34.856 93.3058 34.408C92.7511 33.96 92.4738 33.368 92.4738 32.632C92.4738 31.9173 92.7298 31.3413 93.2418 30.904C93.7644 30.4667 94.5911 30.248 95.7218 30.248H98.3938V29.736C98.3938 29.0107 98.1911 28.4613 97.7858 28.088C97.3804 27.704 96.7884 27.512 96.0098 27.512C95.4764 27.512 94.9644 27.6027 94.4738 27.784C93.9831 27.9547 93.5618 28.1947 93.2098 28.504L92.6978 27.656C93.1244 27.2933 93.6364 27.016 94.2338 26.824C94.8311 26.6213 95.4604 26.52 96.1218 26.52ZM95.7218 34.184C96.3618 34.184 96.9111 34.04 97.3698 33.752C97.8284 33.4533 98.1698 33.0267 98.3938 32.472V31.096H95.7538C94.3138 31.096 93.5938 31.5973 93.5938 32.6C93.5938 33.0907 93.7804 33.48 94.1538 33.768C94.5271 34.0453 95.0498 34.184 95.7218 34.184Z" fill="#2F2E41"/>
<defs>
<linearGradient id="paint0_linear_54_95" x1="22.2112" y1="9.84128" x2="12.179" y2="19.8713" gradientUnits="userSpaceOnUse">
<stop offset="0.18" stop-color="#0052CC"/>
<stop offset="1" stop-color="#2684FF"/>
</linearGradient>
<linearGradient id="paint1_linear_54_95" x1="1830.72" y1="2109.28" x2="2855.1" y2="2773.38" gradientUnits="userSpaceOnUse">
<stop offset="0.18" stop-color="#0052CC"/>
<stop offset="1" stop-color="#2684FF"/>
</linearGradient>
</defs>
</svg>
