<svg width="154" height="47" viewBox="0 0 154 47" fill="none" xmlns="http://www.w3.org/2000/svg">
<path d="M76.024 34.096C75.384 34.096 74.792 33.9573 74.248 33.68C73.704 33.4027 73.2613 33.008 72.92 32.496L73.624 31.696C74.2427 32.6133 75.048 33.072 76.04 33.072C77.4267 33.072 78.12 32.2507 78.12 30.608V23.824H74.024V22.8H79.288V30.56C79.288 31.7333 79.0107 32.6187 78.456 33.216C77.912 33.8027 77.1013 34.096 76.024 34.096ZM85.5436 25.52C86.6423 25.52 87.485 25.7973 88.0716 26.352C88.6583 26.896 88.9516 27.7067 88.9516 28.784V34H87.8636V32.688C87.6076 33.1253 87.229 33.4667 86.7276 33.712C86.237 33.9573 85.6503 34.08 84.9676 34.08C84.029 34.08 83.2823 33.856 82.7276 33.408C82.173 32.96 81.8956 32.368 81.8956 31.632C81.8956 30.9173 82.1516 30.3413 82.6636 29.904C83.1863 29.4667 84.013 29.248 85.1436 29.248H87.8156V28.736C87.8156 28.0107 87.613 27.4613 87.2076 27.088C86.8023 26.704 86.2103 26.512 85.4316 26.512C84.8983 26.512 84.3863 26.6027 83.8956 26.784C83.405 26.9547 82.9836 27.1947 82.6316 27.504L82.1196 26.656C82.5463 26.2933 83.0583 26.016 83.6556 25.824C84.253 25.6213 84.8823 25.52 85.5436 25.52ZM85.1436 33.184C85.7836 33.184 86.333 33.04 86.7916 32.752C87.2503 32.4533 87.5916 32.0267 87.8156 31.472V30.096H85.1756C83.7356 30.096 83.0156 30.5973 83.0156 31.6C83.0156 32.0907 83.2023 32.48 83.5756 32.768C83.949 33.0453 84.4716 33.184 85.1436 33.184ZM98.9529 25.584L95.2089 34H94.0409L90.3129 25.584H91.4969L94.6489 32.752L97.8329 25.584H98.9529ZM102.715 34.08C102.032 34.08 101.376 33.984 100.747 33.792C100.128 33.5893 99.643 33.3387 99.291 33.04L99.803 32.144C100.155 32.4213 100.598 32.6507 101.131 32.832C101.664 33.0027 102.219 33.088 102.795 33.088C103.563 33.088 104.128 32.9707 104.491 32.736C104.864 32.4907 105.051 32.1493 105.051 31.712C105.051 31.4027 104.95 31.1627 104.747 30.992C104.544 30.8107 104.288 30.6773 103.979 30.592C103.67 30.496 103.259 30.4053 102.747 30.32C102.064 30.192 101.515 30.064 101.099 29.936C100.683 29.7973 100.326 29.568 100.027 29.248C99.739 28.928 99.595 28.4853 99.595 27.92C99.595 27.216 99.8883 26.64 100.475 26.192C101.062 25.744 101.878 25.52 102.923 25.52C103.467 25.52 104.011 25.5947 104.555 25.744C105.099 25.8827 105.547 26.0693 105.899 26.304L105.403 27.216C104.71 26.736 103.883 26.496 102.923 26.496C102.198 26.496 101.648 26.624 101.275 26.88C100.912 27.136 100.731 27.472 100.731 27.888C100.731 28.208 100.832 28.464 101.035 28.656C101.248 28.848 101.51 28.992 101.819 29.088C102.128 29.1733 102.555 29.264 103.099 29.36C103.771 29.488 104.31 29.616 104.715 29.744C105.12 29.872 105.467 30.0907 105.755 30.4C106.043 30.7093 106.187 31.136 106.187 31.68C106.187 32.416 105.878 33.0027 105.259 33.44C104.651 33.8667 103.803 34.08 102.715 34.08ZM111.615 34.096C110.783 34.096 109.983 33.9627 109.215 33.696C108.458 33.4293 107.871 33.0773 107.455 32.64L107.919 31.728C108.324 32.1333 108.863 32.464 109.535 32.72C110.207 32.9653 110.9 33.088 111.615 33.088C112.618 33.088 113.37 32.9067 113.871 32.544C114.372 32.1707 114.623 31.6907 114.623 31.104C114.623 30.656 114.484 30.2987 114.207 30.032C113.94 29.7653 113.61 29.5627 113.215 29.424C112.82 29.2747 112.271 29.1147 111.567 28.944C110.724 28.7307 110.052 28.528 109.551 28.336C109.05 28.1333 108.618 27.8293 108.255 27.424C107.903 27.0187 107.727 26.4693 107.727 25.776C107.727 25.2107 107.876 24.6987 108.175 24.24C108.474 23.7707 108.932 23.3973 109.551 23.12C110.17 22.8427 110.938 22.704 111.855 22.704C112.495 22.704 113.119 22.7947 113.727 22.976C114.346 23.1467 114.879 23.3867 115.327 23.696L114.927 24.64C114.458 24.3307 113.956 24.1013 113.423 23.952C112.89 23.792 112.367 23.712 111.855 23.712C110.874 23.712 110.132 23.904 109.631 24.288C109.14 24.6613 108.895 25.1467 108.895 25.744C108.895 26.192 109.028 26.5547 109.295 26.832C109.572 27.0987 109.914 27.3067 110.319 27.456C110.735 27.5947 111.29 27.7493 111.983 27.92C112.804 28.1227 113.466 28.3253 113.967 28.528C114.479 28.72 114.911 29.0187 115.263 29.424C115.615 29.8187 115.791 30.3573 115.791 31.04C115.791 31.6053 115.636 32.1227 115.327 32.592C115.028 33.0507 114.564 33.4187 113.935 33.696C113.306 33.9627 112.532 34.096 111.615 34.096ZM121.619 34.08C120.787 34.08 120.04 33.8987 119.379 33.536C118.728 33.1733 118.216 32.6667 117.843 32.016C117.47 31.3547 117.283 30.6133 117.283 29.792C117.283 28.9707 117.47 28.2347 117.843 27.584C118.216 26.9333 118.728 26.4267 119.379 26.064C120.04 25.7013 120.787 25.52 121.619 25.52C122.344 25.52 122.99 25.664 123.555 25.952C124.131 26.2293 124.584 26.64 124.915 27.184L124.067 27.76C123.79 27.344 123.438 27.0347 123.011 26.832C122.584 26.6187 122.12 26.512 121.619 26.512C121.011 26.512 120.462 26.6507 119.971 26.928C119.491 27.1947 119.112 27.5787 118.835 28.08C118.568 28.5813 118.435 29.152 118.435 29.792C118.435 30.4427 118.568 31.0187 118.835 31.52C119.112 32.0107 119.491 32.3947 119.971 32.672C120.462 32.9387 121.011 33.072 121.619 33.072C122.12 33.072 122.584 32.9707 123.011 32.768C123.438 32.5653 123.79 32.256 124.067 31.84L124.915 32.416C124.584 32.96 124.131 33.376 123.555 33.664C122.979 33.9413 122.334 34.08 121.619 34.08ZM128.235 27.232C128.501 26.6667 128.896 26.24 129.419 25.952C129.952 25.664 130.608 25.52 131.387 25.52V26.624L131.115 26.608C130.229 26.608 129.536 26.88 129.035 27.424C128.533 27.968 128.283 28.7307 128.283 29.712V34H127.147V25.584H128.235V27.232ZM133.443 25.584H134.579V34H133.443V25.584ZM134.019 23.744C133.785 23.744 133.587 23.664 133.427 23.504C133.267 23.344 133.187 23.152 133.187 22.928C133.187 22.7147 133.267 22.528 133.427 22.368C133.587 22.208 133.785 22.128 134.019 22.128C134.254 22.128 134.451 22.208 134.611 22.368C134.771 22.5173 134.851 22.6987 134.851 22.912C134.851 23.1467 134.771 23.344 134.611 23.504C134.451 23.664 134.254 23.744 134.019 23.744ZM142.076 25.52C142.866 25.52 143.58 25.7013 144.22 26.064C144.86 26.416 145.362 26.9173 145.724 27.568C146.087 28.2187 146.268 28.96 146.268 29.792C146.268 30.6347 146.087 31.3813 145.724 32.032C145.362 32.6827 144.86 33.1893 144.22 33.552C143.591 33.904 142.876 34.08 142.076 34.08C141.394 34.08 140.775 33.9413 140.22 33.664C139.676 33.376 139.228 32.96 138.876 32.416V37.104H137.74V25.584H138.828V27.248C139.17 26.6933 139.618 26.2667 140.172 25.968C140.738 25.6693 141.372 25.52 142.076 25.52ZM141.996 33.072C142.583 33.072 143.116 32.9387 143.596 32.672C144.076 32.3947 144.45 32.0053 144.716 31.504C144.994 31.0027 145.132 30.432 145.132 29.792C145.132 29.152 144.994 28.5867 144.716 28.096C144.45 27.5947 144.076 27.2053 143.596 26.928C143.116 26.6507 142.583 26.512 141.996 26.512C141.399 26.512 140.86 26.6507 140.38 26.928C139.911 27.2053 139.538 27.5947 139.26 28.096C138.994 28.5867 138.86 29.152 138.86 29.792C138.86 30.432 138.994 31.0027 139.26 31.504C139.538 32.0053 139.911 32.3947 140.38 32.672C140.86 32.9387 141.399 33.072 141.996 33.072ZM153.016 33.488C152.803 33.68 152.536 33.8293 152.216 33.936C151.907 34.032 151.581 34.08 151.24 34.08C150.451 34.08 149.843 33.8667 149.416 33.44C148.989 33.0133 148.776 32.4107 148.776 31.632V26.544H147.272V25.584H148.776V23.744H149.912V25.584H152.472V26.544H149.912V31.568C149.912 32.0693 150.035 32.4533 150.28 32.72C150.536 32.976 150.899 33.104 151.368 33.104C151.603 33.104 151.827 33.0667 152.04 32.992C152.264 32.9173 152.456 32.8107 152.616 32.672L153.016 33.488Z" fill="#2F2E41"/>
<path d="M3.79556 41.7831L0 0L40.89 0.0159475L37.1263 41.7512L20.4131 46.4717L3.79556 41.7831ZM34.0484 39.5025L37.222 3.71582H20.4769L20.6045 43.1865L34.0484 39.5025ZM18.914 8.96263H14.8473L14.7995 30.3804L6.90537 28.2275L6.92132 33.1235L18.914 36.3608V8.96263Z" fill="#D4B830"/>
<path opacity="0.986" d="M6.92122 33.1235L6.90527 28.2275C6.90527 28.2275 11.9448 29.6468 14.7994 30.3804L14.8472 8.97858H18.9139V36.3608L6.92122 33.1235Z" fill="#EBEBEB" fill-opacity="0.9216"/>
<path d="M20.4768 3.69989H37.2219L34.0483 39.4866L20.4768 43.1705V3.69989ZM33.1872 33.4903L34.2875 20.1101L26.1542 21.0191V13.8745L34.8298 13.8427L35.1806 8.96264L22.0875 9.02643L22.263 26.7922L30.173 25.4367L30.0614 29.3917L22.0875 31.5127L22.1673 36.3609L33.1872 33.4903Z" fill="#FDD83C"/>
</svg>
