<svg width="128" height="44" viewBox="0 0 128 44" fill="none" xmlns="http://www.w3.org/2000/svg">
<path d="M85.472 33L82.912 29.4C82.624 29.432 82.3253 29.448 82.016 29.448H79.008V33H77.824V21.8H82.016C83.4453 21.8 84.5653 22.1413 85.376 22.824C86.1867 23.5067 86.592 24.4453 86.592 25.64C86.592 26.5147 86.368 27.256 85.92 27.864C85.4827 28.4613 84.8533 28.8933 84.032 29.16L86.768 33H85.472ZM81.984 28.44C83.0933 28.44 83.9413 28.1947 84.528 27.704C85.1147 27.2133 85.408 26.5253 85.408 25.64C85.408 24.7333 85.1147 24.04 84.528 23.56C83.9413 23.0693 83.0933 22.824 81.984 22.824H79.008V28.44H81.984ZM96.4745 29.144H89.4345C89.4985 30.0187 89.8345 30.728 90.4425 31.272C91.0505 31.8053 91.8185 32.072 92.7465 32.072C93.2692 32.072 93.7492 31.9813 94.1865 31.8C94.6238 31.608 95.0025 31.3307 95.3225 30.968L95.9625 31.704C95.5892 32.152 95.1198 32.4933 94.5545 32.728C93.9998 32.9627 93.3865 33.08 92.7145 33.08C91.8505 33.08 91.0825 32.8987 90.4105 32.536C89.7492 32.1627 89.2318 31.6507 88.8585 31C88.4852 30.3493 88.2985 29.6133 88.2985 28.792C88.2985 27.9707 88.4745 27.2347 88.8265 26.584C89.1892 25.9333 89.6798 25.4267 90.2985 25.064C90.9278 24.7013 91.6318 24.52 92.4105 24.52C93.1892 24.52 93.8878 24.7013 94.5065 25.064C95.1252 25.4267 95.6105 25.9333 95.9625 26.584C96.3145 27.224 96.4905 27.96 96.4905 28.792L96.4745 29.144ZM92.4105 25.496C91.5998 25.496 90.9172 25.7573 90.3625 26.28C89.8185 26.792 89.5092 27.464 89.4345 28.296H95.4025C95.3278 27.464 95.0132 26.792 94.4585 26.28C93.9145 25.7573 93.2318 25.496 92.4105 25.496ZM106.483 21.128V33H105.395V31.336C105.053 31.9013 104.6 32.3333 104.035 32.632C103.48 32.9307 102.851 33.08 102.147 33.08C101.357 33.08 100.643 32.8987 100.003 32.536C99.3628 32.1733 98.8614 31.6667 98.4988 31.016C98.1361 30.3653 97.9548 29.624 97.9548 28.792C97.9548 27.96 98.1361 27.2187 98.4988 26.568C98.8614 25.9173 99.3628 25.416 100.003 25.064C100.643 24.7013 101.357 24.52 102.147 24.52C102.829 24.52 103.443 24.664 103.987 24.952C104.541 25.2293 104.995 25.64 105.347 26.184V21.128H106.483ZM102.243 32.072C102.829 32.072 103.357 31.9387 103.827 31.672C104.307 31.3947 104.68 31.0053 104.947 30.504C105.224 30.0027 105.363 29.432 105.363 28.792C105.363 28.152 105.224 27.5813 104.947 27.08C104.68 26.5787 104.307 26.1947 103.827 25.928C103.357 25.6507 102.829 25.512 102.243 25.512C101.645 25.512 101.107 25.6507 100.627 25.928C100.157 26.1947 99.7841 26.5787 99.5068 27.08C99.2401 27.5813 99.1068 28.152 99.1068 28.792C99.1068 29.432 99.2401 30.0027 99.5068 30.504C99.7841 31.0053 100.157 31.3947 100.627 31.672C101.107 31.9387 101.645 32.072 102.243 32.072ZM117.231 24.584V33H116.142V31.464C115.844 31.976 115.433 32.376 114.911 32.664C114.388 32.9413 113.791 33.08 113.119 33.08C112.02 33.08 111.151 32.776 110.511 32.168C109.881 31.5493 109.567 30.648 109.567 29.464V24.584H110.703V29.352C110.703 30.2373 110.921 30.9093 111.359 31.368C111.796 31.8267 112.42 32.056 113.231 32.056C114.116 32.056 114.815 31.7893 115.327 31.256C115.839 30.712 116.095 29.96 116.095 29V24.584H117.231ZM125.772 33L123.1 29.48L120.412 33H119.132L122.46 28.68L119.292 24.584H120.572L123.1 27.88L125.628 24.584H126.876L123.708 28.68L127.068 33H125.772Z" fill="#2F2E41"/>
<path d="M32.566 30.7292C34.3004 30.5522 35.6163 29.0778 35.5564 27.3082C35.4967 25.5389 34.0014 24.1233 32.2071 24.1233H32.0876C30.2333 24.1823 28.798 25.7158 28.8578 27.5441C28.9177 28.4289 29.2764 29.1956 29.8147 29.7264C27.7812 33.6783 24.6711 36.5683 20.006 38.9865C16.8361 40.638 13.5466 41.2278 10.2572 40.8151C7.56571 40.4611 5.47238 39.2816 4.15638 37.335C2.2426 34.445 2.06322 31.3189 3.67811 28.193C4.81456 25.9517 6.60864 24.3002 7.74508 23.4744C7.50586 22.7077 7.14693 21.4102 6.96756 20.4666C-1.70485 26.6595 -0.807631 35.0349 1.824 38.9865C3.79763 41.9357 7.80493 43.7641 12.2308 43.7641C13.4269 43.7641 14.6231 43.6461 15.8194 43.3513C23.475 41.8767 29.2766 37.394 32.566 30.7292ZM43.0926 23.4156C38.547 18.1662 31.8484 15.2762 24.1927 15.2762H23.2358C22.6975 14.2145 21.5611 13.5067 20.3051 13.5067H20.1854C18.3315 13.5657 16.8961 15.0991 16.9558 16.9277C17.0156 18.697 18.5108 20.1126 20.3051 20.1126H20.4246C21.7404 20.0536 22.8769 19.2278 23.3553 18.1072H24.4319C28.9775 18.1072 33.2837 19.4047 37.1715 21.941C40.1619 23.8874 42.315 26.4236 43.5112 29.4905C44.5279 31.9678 44.4681 34.386 43.3915 36.4504C41.7169 39.5764 38.9059 41.2869 35.1977 41.2869C32.8053 41.2869 30.5326 40.579 29.3363 40.0482C28.6784 40.638 27.4821 41.5816 26.6448 42.1716C29.2167 43.3511 31.8484 44 34.3603 44C40.102 44 44.3485 40.8739 45.9634 37.748C47.6978 34.327 47.5781 28.4289 43.0926 23.4156ZM12.7093 31.7317C12.7691 33.5012 14.2643 34.9166 16.0586 34.9166H16.1783C18.0324 34.8578 19.4677 33.3242 19.4079 31.4958C19.3482 29.7263 17.8528 28.3109 16.0586 28.3109H15.9391C15.8194 28.3109 15.6398 28.3109 15.5205 28.3697C13.0682 24.359 12.0515 19.9946 12.4104 15.276C12.6494 11.7371 13.8457 8.67005 15.9391 6.13379C17.6735 3.95148 21.0228 2.88983 23.2957 2.83099C29.6353 2.71295 32.3266 10.4984 32.5062 13.6245C33.2837 13.8014 34.5995 14.2144 35.4967 14.5093C34.7789 4.95447 28.798 0 23.0564 0C17.6735 0 12.7093 3.8338 10.7355 9.49597C7.98431 17.0455 9.77857 24.3002 13.1279 30.0214C12.829 30.4341 12.6494 31.083 12.7093 31.7319V31.7317Z" fill="#764ABC"/>
</svg>
