<svg width="105" height="47" viewBox="0 0 105 47" fill="none" xmlns="http://www.w3.org/2000/svg">
<path d="M79.688 34.096C78.5787 34.096 77.576 33.8507 76.68 33.36C75.7947 32.8693 75.096 32.192 74.584 31.328C74.0827 30.4533 73.832 29.4773 73.832 28.4C73.832 27.3227 74.0827 26.352 74.584 25.488C75.096 24.6133 75.8 23.9307 76.696 23.44C77.592 22.9493 78.5947 22.704 79.704 22.704C80.536 22.704 81.304 22.8427 82.008 23.12C82.712 23.3973 83.3093 23.8027 83.8 24.336L83.048 25.088C82.1733 24.2027 81.0693 23.76 79.736 23.76C78.8507 23.76 78.0453 23.9627 77.32 24.368C76.5947 24.7733 76.024 25.328 75.608 26.032C75.2027 26.736 75 27.5253 75 28.4C75 29.2747 75.2027 30.064 75.608 30.768C76.024 31.472 76.5947 32.0267 77.32 32.432C78.0453 32.8373 78.8507 33.04 79.736 33.04C81.08 33.04 82.184 32.592 83.048 31.696L83.8 32.448C83.3093 32.9813 82.7067 33.392 81.992 33.68C81.288 33.9573 80.52 34.096 79.688 34.096ZM89.3495 34.096C88.5175 34.096 87.7175 33.9627 86.9495 33.696C86.1922 33.4293 85.6055 33.0773 85.1895 32.64L85.6535 31.728C86.0588 32.1333 86.5975 32.464 87.2695 32.72C87.9415 32.9653 88.6348 33.088 89.3495 33.088C90.3522 33.088 91.1042 32.9067 91.6055 32.544C92.1068 32.1707 92.3575 31.6907 92.3575 31.104C92.3575 30.656 92.2188 30.2987 91.9415 30.032C91.6748 29.7653 91.3442 29.5627 90.9495 29.424C90.5548 29.2747 90.0055 29.1147 89.3015 28.944C88.4588 28.7307 87.7868 28.528 87.2855 28.336C86.7842 28.1333 86.3522 27.8293 85.9895 27.424C85.6375 27.0187 85.4615 26.4693 85.4615 25.776C85.4615 25.2107 85.6108 24.6987 85.9095 24.24C86.2082 23.7707 86.6668 23.3973 87.2855 23.12C87.9042 22.8427 88.6722 22.704 89.5895 22.704C90.2295 22.704 90.8535 22.7947 91.4615 22.976C92.0802 23.1467 92.6135 23.3867 93.0615 23.696L92.6615 24.64C92.1922 24.3307 91.6908 24.1013 91.1575 23.952C90.6242 23.792 90.1015 23.712 89.5895 23.712C88.6082 23.712 87.8668 23.904 87.3655 24.288C86.8748 24.6613 86.6295 25.1467 86.6295 25.744C86.6295 26.192 86.7628 26.5547 87.0295 26.832C87.3068 27.0987 87.6482 27.3067 88.0535 27.456C88.4695 27.5947 89.0242 27.7493 89.7175 27.92C90.5388 28.1227 91.2002 28.3253 91.7015 28.528C92.2135 28.72 92.6455 29.0187 92.9975 29.424C93.3495 29.8187 93.5255 30.3573 93.5255 31.04C93.5255 31.6053 93.3708 32.1227 93.0615 32.592C92.7628 33.0507 92.2988 33.4187 91.6695 33.696C91.0402 33.9627 90.2668 34.096 89.3495 34.096ZM99.1933 34.096C98.3613 34.096 97.5613 33.9627 96.7933 33.696C96.0359 33.4293 95.4493 33.0773 95.0333 32.64L95.4973 31.728C95.9026 32.1333 96.4413 32.464 97.1133 32.72C97.7853 32.9653 98.4786 33.088 99.1933 33.088C100.196 33.088 100.948 32.9067 101.449 32.544C101.951 32.1707 102.201 31.6907 102.201 31.104C102.201 30.656 102.063 30.2987 101.785 30.032C101.519 29.7653 101.188 29.5627 100.793 29.424C100.399 29.2747 99.8493 29.1147 99.1453 28.944C98.3026 28.7307 97.6306 28.528 97.1293 28.336C96.6279 28.1333 96.1959 27.8293 95.8333 27.424C95.4813 27.0187 95.3053 26.4693 95.3053 25.776C95.3053 25.2107 95.4546 24.6987 95.7533 24.24C96.0519 23.7707 96.5106 23.3973 97.1293 23.12C97.7479 22.8427 98.5159 22.704 99.4333 22.704C100.073 22.704 100.697 22.7947 101.305 22.976C101.924 23.1467 102.457 23.3867 102.905 23.696L102.505 24.64C102.036 24.3307 101.535 24.1013 101.001 23.952C100.468 23.792 99.9453 23.712 99.4333 23.712C98.4519 23.712 97.7106 23.904 97.2093 24.288C96.7186 24.6613 96.4733 25.1467 96.4733 25.744C96.4733 26.192 96.6066 26.5547 96.8733 26.832C97.1506 27.0987 97.4919 27.3067 97.8973 27.456C98.3133 27.5947 98.8679 27.7493 99.5613 27.92C100.383 28.1227 101.044 28.3253 101.545 28.528C102.057 28.72 102.489 29.0187 102.841 29.424C103.193 29.8187 103.369 30.3573 103.369 31.04C103.369 31.6053 103.215 32.1227 102.905 32.592C102.607 33.0507 102.143 33.4187 101.513 33.696C100.884 33.9627 100.111 34.096 99.1933 34.096Z" fill="#2F2E41"/>
<path d="M3.71994 41.7392L0 0H40.8895L37.1646 41.7325L20.4199 46.375L3.71994 41.7392Z" fill="#1572B6"/>
<path d="M20.4448 42.8274L33.9764 39.076L37.1597 3.41357H20.4448V42.8274Z" fill="#33A9DC"/>
<path d="M20.4448 18.5352H27.2189L27.6859 13.2932H20.4448V8.17371H33.2808L33.1582 9.54674L31.9011 23.6547H20.4448V18.5352Z" fill="white"/>
<path d="M20.4763 31.83L20.4531 31.8366L14.7523 30.2963L14.3879 26.2136H9.24854L9.96569 34.2514L20.4514 37.1631L20.4763 37.1565V31.83Z" fill="#EBEBEB"/>
<path d="M26.7835 23.4375L26.1673 30.2927L20.4583 31.833V37.1595L30.9523 34.2512L31.0301 33.3866L31.9195 23.4375H26.7835Z" fill="white"/>
<path d="M20.463 8.17371V13.2932H8.09745L7.99477 12.1421L7.76123 9.54674L7.63867 8.17371H20.463Z" fill="#EBEBEB"/>
<path d="M20.4449 18.535V23.6545H14.8153L14.7126 22.5034L14.4807 19.9081L14.3582 18.535H20.4449Z" fill="#EBEBEB"/>
</svg>
