<svg width="100" height="47" viewBox="0 0 100 47" fill="none" xmlns="http://www.w3.org/2000/svg">
<path d="M85.712 29.4H86.848V33.672C86.3253 34.1307 85.7067 34.4827 84.992 34.728C84.2773 34.9733 83.5253 35.096 82.736 35.096C81.616 35.096 80.608 34.8507 79.712 34.36C78.816 33.8693 78.112 33.192 77.6 32.328C77.088 31.4533 76.832 30.4773 76.832 29.4C76.832 28.3227 77.088 27.352 77.6 26.488C78.112 25.6133 78.816 24.9307 79.712 24.44C80.608 23.9493 81.6213 23.704 82.752 23.704C83.6053 23.704 84.3893 23.8427 85.104 24.12C85.8187 24.3867 86.4213 24.7867 86.912 25.32L86.176 26.072C85.2907 25.1973 84.1653 24.76 82.8 24.76C81.8933 24.76 81.072 24.9627 80.336 25.368C79.6107 25.7627 79.04 26.3173 78.624 27.032C78.208 27.736 78 28.5253 78 29.4C78 30.2747 78.208 31.064 78.624 31.768C79.04 32.472 79.6107 33.0267 80.336 33.432C81.0613 33.8373 81.8773 34.04 82.784 34.04C83.936 34.04 84.912 33.752 85.712 33.176V29.4ZM89.959 26.584H91.095V35H89.959V26.584ZM90.535 24.744C90.3003 24.744 90.103 24.664 89.943 24.504C89.783 24.344 89.703 24.152 89.703 23.928C89.703 23.7147 89.783 23.528 89.943 23.368C90.103 23.208 90.3003 23.128 90.535 23.128C90.7697 23.128 90.967 23.208 91.127 23.368C91.287 23.5173 91.367 23.6987 91.367 23.912C91.367 24.1467 91.287 24.344 91.127 24.504C90.967 24.664 90.7697 24.744 90.535 24.744ZM98.6879 34.488C98.4745 34.68 98.2079 34.8293 97.8879 34.936C97.5785 35.032 97.2532 35.08 96.9119 35.08C96.1225 35.08 95.5145 34.8667 95.0879 34.44C94.6612 34.0133 94.4479 33.4107 94.4479 32.632V27.544H92.9439V26.584H94.4479V24.744H95.5839V26.584H98.1439V27.544H95.5839V32.568C95.5839 33.0693 95.7065 33.4533 95.9519 33.72C96.2079 33.976 96.5705 34.104 97.0399 34.104C97.2745 34.104 97.4985 34.0667 97.7119 33.992C97.9359 33.9173 98.1279 33.8107 98.2879 33.672L98.6879 34.488Z" fill="#2F2E41"/>
<path d="M46.1137 21.4063L25.593 0.886361C24.412 -0.295454 22.4952 -0.295454 21.3127 0.886361L17.0515 5.14765L22.457 10.5533C23.7132 10.1288 25.1537 10.4136 26.155 11.4149C27.1611 12.4227 27.4438 13.8755 27.0091 15.1357L32.2186 20.3455C33.4789 19.9112 34.9332 20.1922 35.9398 21.2005C37.3467 22.6068 37.3467 24.8862 35.9398 26.2935C34.5326 27.7009 32.2533 27.7009 30.8453 26.2935C29.787 25.2341 29.5256 23.6799 30.0613 22.3762L25.2031 17.5179L25.2025 30.303C25.5547 30.4772 25.8764 30.7072 26.155 30.9842C27.5619 32.3905 27.5619 34.6701 26.155 36.0784C24.7478 37.4852 22.4673 37.4852 21.0621 36.0784C19.6552 34.6701 19.6552 32.3907 21.0621 30.9844C21.3993 30.647 21.7999 30.3799 22.241 30.1984V17.2941C21.7993 17.1138 21.3984 16.8465 21.0621 16.5081C19.9962 15.4436 19.7399 13.8795 20.286 12.5707L14.9574 7.24139L0.88676 21.3114C-0.295587 22.4943 -0.295587 24.4112 0.88676 25.5932L21.4078 46.1135C22.5892 47.2955 24.5056 47.2955 25.6885 46.1135L46.1135 25.6885C47.2955 24.5061 47.2955 22.5881 46.1135 21.4063" fill="#DE4C36"/>
</svg>
