<svg width="24" height="37" viewBox="0 0 24 37" fill="none" xmlns="http://www.w3.org/2000/svg">
<path fill-rule="evenodd" clip-rule="evenodd" d="M21.4054 24.3243V12C21.4054 6.80554 17.1945 2.59459 12 2.59459C6.80554 2.59459 2.59459 6.80554 2.59459 12V24.3243C2.59459 29.5188 6.80554 33.7297 12 33.7297C17.1945 33.7297 21.4054 29.5188 21.4054 24.3243ZM12 0C5.37258 0 0 5.37258 0 12V24.3243C0 30.9517 5.37258 36.3243 12 36.3243C18.6274 36.3243 24 30.9517 24 24.3243V12C24 5.37258 18.6274 0 12 0Z" fill="#2F2E41"/>
<path fill-rule="evenodd" clip-rule="evenodd" d="M11.027 14.9189L11.027 1.94592L13.6216 1.94592L13.6216 14.9189L11.027 14.9189Z" fill="#2F2E41"/>
</svg>
