<svg width="139" height="41" viewBox="0 0 139 41" fill="none" xmlns="http://www.w3.org/2000/svg">
<path d="M84.472 31L81.912 27.4C81.624 27.432 81.3253 27.448 81.016 27.448H78.008V31H76.824V19.8H81.016C82.4453 19.8 83.5653 20.1413 84.376 20.824C85.1867 21.5067 85.592 22.4453 85.592 23.64C85.592 24.5147 85.368 25.256 84.92 25.864C84.4827 26.4613 83.8533 26.8933 83.032 27.16L85.768 31H84.472ZM80.984 26.44C82.0933 26.44 82.9413 26.1947 83.528 25.704C84.1147 25.2133 84.408 24.5253 84.408 23.64C84.408 22.7333 84.1147 22.04 83.528 21.56C82.9413 21.0693 82.0933 20.824 80.984 20.824H78.008V26.44H80.984ZM95.4745 27.144H88.4345C88.4985 28.0187 88.8345 28.728 89.4425 29.272C90.0505 29.8053 90.8185 30.072 91.7465 30.072C92.2692 30.072 92.7492 29.9813 93.1865 29.8C93.6238 29.608 94.0025 29.3307 94.3225 28.968L94.9625 29.704C94.5892 30.152 94.1198 30.4933 93.5545 30.728C92.9998 30.9627 92.3865 31.08 91.7145 31.08C90.8505 31.08 90.0825 30.8987 89.4105 30.536C88.7492 30.1627 88.2318 29.6507 87.8585 29C87.4852 28.3493 87.2985 27.6133 87.2985 26.792C87.2985 25.9707 87.4745 25.2347 87.8265 24.584C88.1892 23.9333 88.6798 23.4267 89.2985 23.064C89.9278 22.7013 90.6318 22.52 91.4105 22.52C92.1892 22.52 92.8878 22.7013 93.5065 23.064C94.1252 23.4267 94.6105 23.9333 94.9625 24.584C95.3145 25.224 95.4905 25.96 95.4905 26.792L95.4745 27.144ZM91.4105 23.496C90.5998 23.496 89.9172 23.7573 89.3625 24.28C88.8185 24.792 88.5092 25.464 88.4345 26.296H94.4025C94.3278 25.464 94.0132 24.792 93.4585 24.28C92.9145 23.7573 92.2318 23.496 91.4105 23.496ZM100.512 22.52C101.611 22.52 102.454 22.7973 103.04 23.352C103.627 23.896 103.92 24.7067 103.92 25.784V31H102.832V29.688C102.576 30.1253 102.198 30.4667 101.696 30.712C101.206 30.9573 100.619 31.08 99.9364 31.08C98.9977 31.08 98.251 30.856 97.6964 30.408C97.1417 29.96 96.8644 29.368 96.8644 28.632C96.8644 27.9173 97.1204 27.3413 97.6324 26.904C98.155 26.4667 98.9817 26.248 100.112 26.248H102.784V25.736C102.784 25.0107 102.582 24.4613 102.176 24.088C101.771 23.704 101.179 23.512 100.4 23.512C99.867 23.512 99.355 23.6027 98.8644 23.784C98.3737 23.9547 97.9524 24.1947 97.6004 24.504L97.0884 23.656C97.515 23.2933 98.027 23.016 98.6244 22.824C99.2217 22.6213 99.851 22.52 100.512 22.52ZM100.112 30.184C100.752 30.184 101.302 30.04 101.76 29.752C102.219 29.4533 102.56 29.0267 102.784 28.472V27.096H100.144C98.7044 27.096 97.9844 27.5973 97.9844 28.6C97.9844 29.0907 98.171 29.48 98.5444 29.768C98.9177 30.0453 99.4404 30.184 100.112 30.184ZM110.525 31.08C109.693 31.08 108.946 30.8987 108.285 30.536C107.634 30.1733 107.122 29.6667 106.749 29.016C106.376 28.3547 106.189 27.6133 106.189 26.792C106.189 25.9707 106.376 25.2347 106.749 24.584C107.122 23.9333 107.634 23.4267 108.285 23.064C108.946 22.7013 109.693 22.52 110.525 22.52C111.25 22.52 111.896 22.664 112.461 22.952C113.037 23.2293 113.49 23.64 113.821 24.184L112.973 24.76C112.696 24.344 112.344 24.0347 111.917 23.832C111.49 23.6187 111.026 23.512 110.525 23.512C109.917 23.512 109.368 23.6507 108.877 23.928C108.397 24.1947 108.018 24.5787 107.741 25.08C107.474 25.5813 107.341 26.152 107.341 26.792C107.341 27.4427 107.474 28.0187 107.741 28.52C108.018 29.0107 108.397 29.3947 108.877 29.672C109.368 29.9387 109.917 30.072 110.525 30.072C111.026 30.072 111.49 29.9707 111.917 29.768C112.344 29.5653 112.696 29.256 112.973 28.84L113.821 29.416C113.49 29.96 113.037 30.376 112.461 30.664C111.885 30.9413 111.24 31.08 110.525 31.08ZM120.579 30.488C120.365 30.68 120.099 30.8293 119.779 30.936C119.469 31.032 119.144 31.08 118.803 31.08C118.013 31.08 117.405 30.8667 116.979 30.44C116.552 30.0133 116.339 29.4107 116.339 28.632V23.544H114.835V22.584H116.339V20.744H117.475V22.584H120.035V23.544H117.475V28.568C117.475 29.0693 117.597 29.4533 117.843 29.72C118.099 29.976 118.461 30.104 118.931 30.104C119.165 30.104 119.389 30.0667 119.603 29.992C119.827 29.9173 120.019 29.8107 120.179 29.672L120.579 30.488ZM124.087 31.096C123.447 31.096 122.855 30.9573 122.311 30.68C121.767 30.4027 121.324 30.008 120.982 29.496L121.687 28.696C122.305 29.6133 123.111 30.072 124.103 30.072C125.489 30.072 126.183 29.2507 126.183 27.608V20.824H122.087V19.8H127.351V27.56C127.351 28.7333 127.073 29.6187 126.519 30.216C125.975 30.8027 125.164 31.096 124.087 31.096ZM133.99 31.096C133.158 31.096 132.358 30.9627 131.59 30.696C130.833 30.4293 130.246 30.0773 129.83 29.64L130.294 28.728C130.699 29.1333 131.238 29.464 131.91 29.72C132.582 29.9653 133.275 30.088 133.99 30.088C134.993 30.088 135.745 29.9067 136.246 29.544C136.747 29.1707 136.998 28.6907 136.998 28.104C136.998 27.656 136.859 27.2987 136.582 27.032C136.315 26.7653 135.985 26.5627 135.59 26.424C135.195 26.2747 134.646 26.1147 133.942 25.944C133.099 25.7307 132.427 25.528 131.926 25.336C131.425 25.1333 130.993 24.8293 130.63 24.424C130.278 24.0187 130.102 23.4693 130.102 22.776C130.102 22.2107 130.251 21.6987 130.55 21.24C130.849 20.7707 131.307 20.3973 131.926 20.12C132.545 19.8427 133.313 19.704 134.23 19.704C134.87 19.704 135.494 19.7947 136.102 19.976C136.721 20.1467 137.254 20.3867 137.702 20.696L137.302 21.64C136.833 21.3307 136.331 21.1013 135.798 20.952C135.265 20.792 134.742 20.712 134.23 20.712C133.249 20.712 132.507 20.904 132.006 21.288C131.515 21.6613 131.27 22.1467 131.27 22.744C131.27 23.192 131.403 23.5547 131.67 23.832C131.947 24.0987 132.289 24.3067 132.694 24.456C133.11 24.5947 133.665 24.7493 134.358 24.92C135.179 25.1227 135.841 25.3253 136.342 25.528C136.854 25.72 137.286 26.0187 137.638 26.424C137.99 26.8187 138.166 27.3573 138.166 28.04C138.166 28.6053 138.011 29.1227 137.702 29.592C137.403 30.0507 136.939 30.4187 136.31 30.696C135.681 30.9627 134.907 31.096 133.99 31.096Z" fill="#2F2E41"/>
<path d="M22.75 24.2654C24.9937 24.2654 26.8125 22.4465 26.8125 20.2029C26.8125 17.9592 24.9937 16.1404 22.75 16.1404C20.5063 16.1404 18.6875 17.9592 18.6875 20.2029C18.6875 22.4465 20.5063 24.2654 22.75 24.2654Z" fill="#00D8FF"/>
<path d="M22.75 29.5169C17.8671 29.6351 12.9964 28.9769 8.32 27.5669C6.15976 26.8822 4.14494 25.8034 2.37738 24.3852C1.70289 23.9007 1.14119 23.276 0.730831 22.5541C0.32047 21.8321 0.0711581 21.0299 0 20.2024C0 17.5163 2.951 14.8838 7.89425 13.1613C12.6957 11.635 17.7124 10.8953 22.75 10.9708C27.7204 10.9014 32.6699 11.6277 37.4107 13.1223C39.4912 13.7856 41.4377 14.8122 43.16 16.1546C43.823 16.6165 44.3762 17.2185 44.7806 17.918C45.185 18.6175 45.4306 19.3974 45.5 20.2024C45.5 22.9942 42.2013 25.8233 36.8875 27.5816C32.3016 28.9455 27.5337 29.5983 22.75 29.5169ZM22.75 12.9143C17.9304 12.8499 13.1313 13.5531 8.53288 14.9976C3.98287 16.5852 1.9435 18.7562 1.9435 20.1976C1.9435 21.7056 4.13562 24.0764 8.94888 25.7226C13.4226 27.0646 18.0807 27.6893 22.75 27.5734C27.3267 27.6553 31.8889 27.036 36.2781 25.7372C41.275 24.0813 43.55 21.7072 43.55 20.2024C43.468 19.6861 43.2798 19.1923 42.9973 18.7523C42.7148 18.3124 42.3442 17.9358 41.9088 17.6463C40.3678 16.4554 38.629 15.5456 36.7721 14.9586C32.2368 13.5347 27.5031 12.8446 22.75 12.9143Z" fill="#00D8FF"/>
<path d="M13.5199 40.4649C12.7618 40.4823 12.0127 40.2984 11.3489 39.9319C9.02186 38.5896 8.21585 34.7189 9.19248 29.5758C10.2693 24.6538 12.135 19.9384 14.7175 15.6121C17.1399 11.2719 20.2411 7.34725 23.9036 3.98689C25.5175 2.51578 27.3793 1.34227 29.4026 0.520762C30.1344 0.177789 30.9328 0 31.741 0C32.5492 0 33.3475 0.177789 34.0794 0.520762C36.499 1.91501 37.3001 6.18551 36.1707 11.6666C35.0607 16.3216 33.2434 20.7787 30.7822 24.8828C28.445 29.1717 25.4415 33.0622 21.8837 36.4089C20.2113 37.9377 18.2703 39.1437 16.1589 39.966C15.3136 40.2797 14.4213 40.4484 13.5199 40.4649ZM16.401 16.5774C13.9376 20.72 12.1494 25.2284 11.1035 29.9333C10.2049 34.6701 11.0677 37.5188 12.3222 38.2435C13.6222 38.9959 16.778 38.2825 20.6097 34.935C24.006 31.7288 26.8729 28.0047 29.1036 23.9013C31.4614 19.9777 33.2046 15.7164 34.2727 11.2653C35.3355 6.10589 34.4174 2.94689 33.1141 2.19614C32.6257 2.00898 32.1037 1.9252 31.5812 1.95009C31.0587 1.97499 30.5471 2.10801 30.0786 2.34076C28.2776 3.08395 26.6218 4.13904 25.1874 5.45751C21.6882 8.67629 18.7258 12.4335 16.4124 16.5871L16.401 16.5774Z" fill="#00D8FF"/>
<path d="M31.9751 40.486C29.7732 40.486 26.9766 39.1535 24.0646 36.6493C20.338 33.2584 17.1843 29.2871 14.7257 24.8892C12.1756 20.6225 10.3247 15.9753 9.24295 11.1238C8.77383 8.98938 8.6869 6.78865 8.9862 4.62384C9.0554 3.82077 9.29993 3.04267 9.70255 2.34439C10.1052 1.64611 10.6561 1.04466 11.3165 0.582461C13.7328 -0.816664 17.8327 0.621461 22.0171 4.33621C25.4955 7.62226 28.4495 11.4224 30.7758 15.604C33.3243 19.771 35.1947 24.3164 36.3171 29.0703C36.8064 31.2831 36.8819 33.5673 36.5397 35.8076C36.4583 36.6337 36.1992 37.4325 35.7801 38.1492C35.3611 38.8658 34.792 39.4834 34.112 39.9595C33.459 40.3214 32.7215 40.5031 31.9751 40.486ZM16.4076 23.911C18.7661 28.1139 21.7787 31.9147 25.3321 35.1706C28.9867 38.315 31.8857 38.991 33.1321 38.2581C34.4321 37.5025 35.3908 34.4182 34.4028 29.4278C33.3204 24.8891 31.5264 20.5503 29.0875 16.5725C26.8674 12.5703 24.0479 8.93149 20.7268 5.78246C16.7878 2.28546 13.5931 1.50384 12.2915 2.25784C11.8858 2.58752 11.5528 2.99774 11.3137 3.46259C11.0746 3.92744 10.9344 4.43683 10.9021 4.95859C10.6437 6.88923 10.7279 8.8503 11.1507 10.7517C12.1912 15.3913 13.9664 19.8348 16.4092 23.9142L16.4076 23.911Z" fill="#00D8FF"/>
</svg>
