<svg width="117" height="39" viewBox="0 0 117 39" fill="none" xmlns="http://www.w3.org/2000/svg">
<path d="M80.912 29.096C80.08 29.096 79.28 28.9627 78.512 28.696C77.7547 28.4293 77.168 28.0773 76.752 27.64L77.216 26.728C77.6213 27.1333 78.16 27.464 78.832 27.72C79.504 27.9653 80.1973 28.088 80.912 28.088C81.9147 28.088 82.6667 27.9067 83.168 27.544C83.6693 27.1707 83.92 26.6907 83.92 26.104C83.92 25.656 83.7813 25.2987 83.504 25.032C83.2373 24.7653 82.9067 24.5627 82.512 24.424C82.1173 24.2747 81.568 24.1147 80.864 23.944C80.0213 23.7307 79.3493 23.528 78.848 23.336C78.3467 23.1333 77.9147 22.8293 77.552 22.424C77.2 22.0187 77.024 21.4693 77.024 20.776C77.024 20.2107 77.1733 19.6987 77.472 19.24C77.7707 18.7707 78.2293 18.3973 78.848 18.12C79.4667 17.8427 80.2347 17.704 81.152 17.704C81.792 17.704 82.416 17.7947 83.024 17.976C83.6427 18.1467 84.176 18.3867 84.624 18.696L84.224 19.64C83.7547 19.3307 83.2533 19.1013 82.72 18.952C82.1867 18.792 81.664 18.712 81.152 18.712C80.1707 18.712 79.4293 18.904 78.928 19.288C78.4373 19.6613 78.192 20.1467 78.192 20.744C78.192 21.192 78.3253 21.5547 78.592 21.832C78.8693 22.0987 79.2107 22.3067 79.616 22.456C80.032 22.5947 80.5867 22.7493 81.28 22.92C82.1013 23.1227 82.7627 23.3253 83.264 23.528C83.776 23.72 84.208 24.0187 84.56 24.424C84.912 24.8187 85.088 25.3573 85.088 26.04C85.088 26.6053 84.9333 27.1227 84.624 27.592C84.3253 28.0507 83.8613 28.4187 83.232 28.696C82.6027 28.9627 81.8293 29.096 80.912 29.096ZM94.6918 26.008H88.4518L87.1078 29H85.8758L90.9958 17.8H92.1638L97.2838 29H96.0358L94.6918 26.008ZM94.2598 25.048L91.5718 19.032L88.8838 25.048H94.2598ZM102.225 29.096C101.393 29.096 100.593 28.9627 99.8245 28.696C99.0672 28.4293 98.4805 28.0773 98.0645 27.64L98.5285 26.728C98.9338 27.1333 99.4725 27.464 100.145 27.72C100.817 27.9653 101.51 28.088 102.225 28.088C103.227 28.088 103.979 27.9067 104.481 27.544C104.982 27.1707 105.233 26.6907 105.233 26.104C105.233 25.656 105.094 25.2987 104.817 25.032C104.55 24.7653 104.219 24.5627 103.825 24.424C103.43 24.2747 102.881 24.1147 102.177 23.944C101.334 23.7307 100.662 23.528 100.161 23.336C99.6592 23.1333 99.2272 22.8293 98.8645 22.424C98.5125 22.0187 98.3365 21.4693 98.3365 20.776C98.3365 20.2107 98.4858 19.6987 98.7845 19.24C99.0832 18.7707 99.5418 18.3973 100.161 18.12C100.779 17.8427 101.547 17.704 102.465 17.704C103.105 17.704 103.729 17.7947 104.337 17.976C104.955 18.1467 105.489 18.3867 105.937 18.696L105.536 19.64C105.067 19.3307 104.566 19.1013 104.033 18.952C103.499 18.792 102.977 18.712 102.465 18.712C101.483 18.712 100.742 18.904 100.241 19.288C99.7498 19.6613 99.5045 20.1467 99.5045 20.744C99.5045 21.192 99.6378 21.5547 99.9045 21.832C100.182 22.0987 100.523 22.3067 100.929 22.456C101.345 22.5947 101.899 22.7493 102.593 22.92C103.414 23.1227 104.075 23.3253 104.577 23.528C105.089 23.72 105.521 24.0187 105.873 24.424C106.225 24.8187 106.401 25.3573 106.401 26.04C106.401 26.6053 106.246 27.1227 105.937 27.592C105.638 28.0507 105.174 28.4187 104.545 28.696C103.915 28.9627 103.142 29.096 102.225 29.096ZM112.068 29.096C111.236 29.096 110.436 28.9627 109.668 28.696C108.911 28.4293 108.324 28.0773 107.908 27.64L108.372 26.728C108.778 27.1333 109.316 27.464 109.988 27.72C110.66 27.9653 111.354 28.088 112.068 28.088C113.071 28.088 113.823 27.9067 114.324 27.544C114.826 27.1707 115.076 26.6907 115.076 26.104C115.076 25.656 114.938 25.2987 114.66 25.032C114.394 24.7653 114.063 24.5627 113.668 24.424C113.274 24.2747 112.724 24.1147 112.02 23.944C111.178 23.7307 110.506 23.528 110.004 23.336C109.503 23.1333 109.071 22.8293 108.708 22.424C108.356 22.0187 108.18 21.4693 108.18 20.776C108.18 20.2107 108.33 19.6987 108.628 19.24C108.927 18.7707 109.386 18.3973 110.004 18.12C110.623 17.8427 111.391 17.704 112.308 17.704C112.948 17.704 113.572 17.7947 114.18 17.976C114.799 18.1467 115.332 18.3867 115.78 18.696L115.38 19.64C114.911 19.3307 114.41 19.1013 113.876 18.952C113.343 18.792 112.82 18.712 112.308 18.712C111.327 18.712 110.586 18.904 110.084 19.288C109.594 19.6613 109.348 20.1467 109.348 20.744C109.348 21.192 109.482 21.5547 109.748 21.832C110.026 22.0987 110.367 22.3067 110.772 22.456C111.188 22.5947 111.743 22.7493 112.436 22.92C113.258 23.1227 113.919 23.3253 114.42 23.528C114.932 23.72 115.364 24.0187 115.716 24.424C116.068 24.8187 116.244 25.3573 116.244 26.04C116.244 26.6053 116.09 27.1227 115.78 27.592C115.482 28.0507 115.018 28.4187 114.388 28.696C113.759 28.9627 112.986 29.096 112.068 29.096Z" fill="#2F2E41"/>
<path d="M40.4707 20.1202C38.8311 20.1286 37.4059 20.5207 36.2128 21.1004C35.7748 20.2394 35.337 19.4723 35.2598 18.9096C35.1739 18.2533 35.071 17.8526 35.1739 17.0683C35.277 16.2841 35.7405 15.1673 35.7319 15.0821C35.7234 14.9969 35.6288 14.5962 34.6845 14.5878C33.7403 14.5792 32.9247 14.7668 32.8303 15.0139C32.7358 15.2611 32.5556 15.8238 32.4354 16.4033C32.2722 17.2559 30.5468 20.299 29.5597 21.8931C29.2419 21.271 28.9672 20.7253 28.907 20.2906C28.8212 19.6343 28.7181 19.2336 28.8212 18.4493C28.9243 17.665 29.3879 16.5484 29.3793 16.4631C29.3706 16.3779 29.2762 15.9771 28.3319 15.9687C27.3875 15.9601 26.5719 16.1477 26.4776 16.3949C26.3832 16.6422 26.2801 17.2217 26.0827 17.7844C25.8852 18.3471 23.5931 23.4278 22.9922 24.7404C22.7494 25.2717 22.4946 25.7975 22.2282 26.3175C22.2282 26.3175 22.2195 26.3431 22.1938 26.3857C22.11 26.5487 22.0243 26.7107 21.9364 26.8716V26.88C21.8075 27.1104 21.6702 27.3233 21.6015 27.3233C21.55 27.3233 21.4555 26.7096 21.6186 25.8742C21.962 24.1097 22.7775 21.3648 22.7691 21.271C22.7691 21.2198 22.9235 20.7425 22.2368 20.4951C21.5671 20.248 21.3268 20.6571 21.2666 20.6571C21.2066 20.6571 21.1635 20.8021 21.1635 20.8021C21.1635 20.8021 21.9106 17.7162 19.7386 17.7162C18.3823 17.7162 16.5107 19.191 15.5836 20.5207C14.5296 21.0903 13.4765 21.6614 12.4244 22.2342C11.9181 22.5156 11.3943 22.7969 10.905 23.0611C10.8706 23.0271 10.8363 22.9843 10.8019 22.9503C8.17493 20.1628 3.31611 18.1936 3.52212 14.4514C3.59944 13.0874 4.07148 9.50709 12.8537 5.15965C20.0819 1.62188 25.8338 2.60212 26.8296 4.77593C28.2546 7.87897 23.7478 13.6415 16.2789 14.4768C13.4288 14.7923 11.935 13.7011 11.5574 13.292C11.1625 12.8657 11.1023 12.8401 10.9563 12.9255C10.7161 13.0534 10.8706 13.437 10.9563 13.6586C11.1797 14.2381 12.0982 15.2611 13.652 15.7642C15.0256 16.2073 18.365 16.4546 22.4084 14.9031C26.9325 13.164 30.4695 8.3307 29.4308 4.28161C28.3919 0.172739 21.5242 -1.18262 15.0256 1.11038C11.1625 2.47452 6.97312 4.62255 3.95992 7.41865C0.380052 10.7431 -0.186614 13.633 0.0451703 14.8435C0.878048 19.1398 6.84443 21.9359 9.23094 24.0073C9.11073 24.0755 8.99898 24.1353 8.90472 24.1865C7.71137 24.7746 3.16147 27.1358 2.02832 29.6335C0.740708 32.4636 2.23451 34.4926 3.22167 34.7652C6.28641 35.6093 9.43695 34.0919 11.1281 31.5856C12.8193 29.0794 12.6133 25.823 11.8321 24.3313C11.8235 24.3143 11.815 24.2971 11.7977 24.2801C12.1068 24.1011 12.4244 23.9135 12.7335 23.7346C13.3016 23.4011 13.8769 23.0799 14.4591 22.7711C14.1671 23.564 13.9524 24.5102 13.8495 25.8742C13.7206 27.4769 14.3816 29.5567 15.2487 30.375C15.6351 30.7333 16.09 30.7417 16.382 30.7417C17.395 30.7417 17.8501 29.9063 18.3565 28.9174C18.9745 27.7071 19.5326 26.3005 19.5326 26.3005C19.5326 26.3005 18.8372 30.1024 20.7259 30.1024C21.4126 30.1024 22.108 29.2158 22.4171 28.7641V28.7725C22.4171 28.7725 22.4342 28.7469 22.4686 28.6873C22.5373 28.5765 22.5802 28.5081 22.5802 28.5081V28.4913C22.8549 28.0138 23.4731 26.9312 24.3916 25.1325C25.5763 22.8139 26.7181 19.9156 26.7181 19.9156C26.7181 19.9156 26.8212 20.6231 27.173 21.7995C27.3792 22.49 27.8081 23.2486 28.1517 23.9817C27.877 24.3654 27.7052 24.5784 27.7052 24.5784L27.7139 24.587C27.4906 24.8768 27.2503 25.1921 26.9841 25.4992C26.0483 26.6073 24.9325 27.8776 24.7778 28.244C24.5974 28.6787 24.6405 28.9942 24.984 29.25C25.2329 29.4375 25.6792 29.463 26.1343 29.4375C26.9756 29.3778 27.5679 29.1732 27.8597 29.0454C28.3148 28.8834 28.847 28.6361 29.3448 28.2696C30.2635 27.5961 30.8213 26.6329 30.77 25.3629C30.7442 24.6638 30.5124 23.9647 30.2291 23.3082C30.3151 23.1891 30.3922 23.0697 30.4782 22.9503C31.9289 20.8447 33.0536 18.5345 33.0536 18.5345C33.0536 18.5345 33.1567 19.242 33.5085 20.4185C33.6803 21.0152 34.0323 21.6631 34.3412 22.2938C32.9762 23.3936 32.1349 24.6722 31.8344 25.5076C31.2937 27.0592 31.7142 27.7581 32.5127 27.92C32.8731 27.9968 33.3883 27.8262 33.766 27.6643C34.2467 27.5109 34.8134 27.2467 35.3543 26.8544C36.273 26.1811 37.157 25.2433 37.1055 23.9733C37.0797 23.3936 36.9252 22.8223 36.7106 22.2682C37.8695 21.7911 39.3633 21.5268 41.2689 21.7483C45.3555 22.2256 46.1624 24.7574 46.0077 25.8232C45.8533 26.8886 44.9948 27.4683 44.7117 27.6473C44.4281 27.8264 44.3339 27.886 44.3596 28.0138C44.3939 28.2014 44.5312 28.193 44.7717 28.1588C45.1066 28.0992 46.9179 27.2977 46.9951 25.3371C47.1239 22.8309 44.7201 20.0946 40.4707 20.1202ZM8.94761 30.6735C7.59115 32.1397 5.70263 32.6938 4.88706 32.2251C4.01147 31.722 4.35482 29.5567 6.0202 28.0054C7.03313 27.0592 8.33805 26.1809 9.20517 25.644C9.40253 25.5247 9.69451 25.3543 10.0465 25.1411C10.1065 25.1069 10.141 25.0899 10.141 25.0899L10.347 24.962C10.9563 27.1784 10.3727 29.1306 8.94761 30.6735ZM18.8201 24.0073C18.3479 25.1497 17.3607 28.0736 16.7598 27.9116C16.2447 27.7752 15.9269 25.5588 16.6567 23.368C17.0258 22.2682 17.807 20.9555 18.2621 20.4441C19.0003 19.6257 19.8159 19.3528 20.0133 19.6855C20.2623 20.1202 19.1119 23.2912 18.8201 24.0073ZM26.967 27.8774C26.7694 27.9798 26.5807 28.048 26.4948 27.9968C26.4347 27.9626 26.5807 27.8262 26.5807 27.8262C26.5807 27.8262 27.6023 26.7352 28.0057 26.2407C28.2376 25.951 28.5121 25.61 28.8041 25.2263V25.3371C28.8041 26.6414 27.5335 27.5195 26.9668 27.8774H26.967ZM33.2509 26.4539C33.1049 26.3515 33.1307 26.0106 33.6201 24.945C33.8089 24.5272 34.2552 23.8283 35.0194 23.1549C35.1052 23.4276 35.1654 23.692 35.1568 23.9391C35.1481 25.5844 33.9636 26.1981 33.2509 26.4539Z" fill="#CD6799"/>
</svg>
